<?xml version="1.0" standalone="no"?>
<!DOCTYPE svg PUBLIC "-//W3C//DTD SVG 20010904//EN"
 "http://www.w3.org/TR/2001/REC-SVG-20010904/DTD/svg10.dtd">
<svg version="1.0" xmlns="http://www.w3.org/2000/svg"
 width="872.000000pt" height="872.000000pt" viewBox="0 0 872.000000 872.000000"
 preserveAspectRatio="xMidYMid meet">
<metadata>
Created by potrace 1.14, written by Peter Selinger 2001-2017
</metadata>
<g transform="translate(0.000000,872.000000) scale(0.100000,-0.100000)"
fill="#000000" stroke="none">
<path d="M4165 8709 c-722 -28 -1436 -251 -2059 -641 -757 -474 -1351 -1170
-1694 -1983 -394 -934 -458 -2012 -176 -2985 229 -787 679 -1492 1304 -2041
266 -233 652 -487 962 -633 537 -252 1075 -387 1661 -416 1115 -54 2221 338
3053 1083 534 479 920 1044 1172 1717 280 749 344 1626 177 2445 -168 825
-568 1577 -1158 2174 -393 399 -815 691 -1339 928 -438 198 -1002 332 -1463
349 -77 2 -167 6 -200 7 -33 2 -141 0 -240 -4z m2044 -1571 c23 -13 69 -55
104 -94 34 -39 224 -250 422 -470 540 -600 574 -640 590 -678 21 -49 19 -102
-5 -152 -22 -45 -132 -149 -190 -179 -44 -23 -124 -24 -166 -2 -18 9 -89 80
-159 157 -70 77 -131 140 -136 138 -4 -2 -111 -96 -236 -209 -125 -113 -297
-267 -381 -343 -84 -76 -152 -142 -150 -146 2 -5 73 -86 158 -181 85 -95 196
-218 246 -273 112 -126 130 -151 144 -208 10 -38 9 -56 -5 -105 -15 -52 -26
-67 -103 -141 -102 -96 -148 -122 -220 -122 -93 0 -118 17 -284 198 -84 91
-182 200 -217 242 -35 41 -66 78 -70 82 -3 4 -5 -300 -4 -676 l3 -684 24 -78
c14 -44 45 -108 69 -144 l43 -65 70 -6 c71 -6 135 -31 166 -66 27 -29 58 -105
58 -142 0 -83 -48 -164 -123 -204 -41 -22 -48 -22 -509 -25 l-467 -3 -20 -62
c-71 -212 -281 -362 -506 -361 -154 1 -262 44 -375 150 -72 68 -132 167 -146
240 l-6 34 -106 0 -105 0 -53 -41 c-124 -96 -289 -92 -405 8 -33 29 -37 30
-164 36 l-129 5 -61 -43 c-135 -96 -163 -98 -245 -19 l-59 56 -63 -59 c-35
-33 -128 -117 -208 -189 -80 -71 -215 -192 -300 -269 -228 -207 -226 -205
-265 -205 -68 0 -103 104 -52 153 51 49 341 312 477 432 80 70 178 159 219
197 l73 68 -36 41 c-84 93 -76 125 75 314 l118 148 -59 65 c-66 71 -107 148
-116 216 -9 64 13 174 43 221 31 46 113 135 126 135 8 0 320 275 447 394 36
33 89 82 118 108 l53 47 9 183 c12 246 54 400 153 566 155 259 391 452 662
543 39 13 71 25 73 25 2 1 -2 21 -8 45 -31 114 0 241 78 323 39 41 142 96 179
96 16 0 30 13 49 45 34 59 155 168 221 201 45 22 60 25 105 19 29 -4 64 -12
78 -17 40 -15 40 -15 545 -575 l40 -45 80 77 c44 43 159 148 255 234 96 85
207 185 245 221 39 36 96 88 129 117 l58 51 -130 146 c-157 176 -171 207 -136
309 12 36 34 64 87 113 40 37 90 75 112 85 55 26 122 24 174 -3z"/>
</g>
</svg>
